<svg width="24" height="24" viewBox="0 0 24 24" fill="none" class=""><path fill-rule="evenodd" clip-rule="evenodd" d="M14.382 3.905a.51.51 0 0 0 .51-.51v-.55c1.287.005 2.733.368 3.845 1.298.616.516 1.42 1.361 1.838 2.419.594 1.508.678 3.343.678 4.357 0 .117.073.244.17.34.096.098.224.17.34.17h.39c.14 0 .29-.056.407-.147.116-.09.2-.219.2-.363 0-1.298-.204-3.477-.973-5.226-.49-1.112-1.364-1.977-2.047-2.56-1.373-1.172-3.193-1.693-4.848-1.698V.611a.511.511 0 0 0-.837-.393l-1.67 1.392a.511.511 0 0 0 0 .785l1.67 1.392a.51.51 0 0 0 .327.118Z" fill="currentColor"></path><path fill-rule="evenodd" clip-rule="evenodd" d="M17.806 15.054V9.005H17.8a2.408 2.408 0 0 0-2.411-2.38H7.135v-3.19a.797.797 0 0 0-.802-.797h-.345a.797.797 0 0 0-.802.796v3.19h-3.14a.805.805 0 0 0-.806.803v.34c0 .444.363.803.806.803h13.342c.255 0 .462.206.462.46l.012 2.382v3.642c0 .443.36.802.802.802h.34c.443 0 .802-.36.802-.802Z" fill="currentColor"></path><path fill-rule="evenodd" clip-rule="evenodd" d="M5.188 10.779v2.55h-.002v3.473a2.408 2.408 0 0 0 2.411 2.406h8.253v3.086c0 .443.359.806.802.806h.345a.805.805 0 0 0 .802-.806v-3.086h3.091c.443 0 .806-.36.806-.802v-.34a.805.805 0 0 0-.806-.803H7.597a.461.461 0 0 1-.462-.46v-3.475h-.003V10.78a.802.802 0 0 0-.802-.802h-.34a.802.802 0 0 0-.802.802Z" fill="currentColor"></path></svg>