<svg viewBox="0 0 34 34" height="34" width="34" preserveAspectRatio="xMidYMid meet" class="" version="1.1" x="0px" y="0px" enable-background="new 0 0 34 34" xml:space="preserve">
    <path fill="currentColor" d="M17,2c8.3,0,15,6.7,15,15s-6.7,15-15,15S2,25.3,2,17S8.7,2,17,2 M17,1C8.2,1,1,8.2,1,17 s7.2,16,16,16s16-7.2,16-16S25.8,1,17,1L17,1z"></path>
    <path fill="currentColor" d="M22,22.5H12c-0.3,0-0.5,0.2-0.5,0.5v0.5c0,0.3,0.2,0.5,0.5,0.5h10c0.3,0,0.5-0.2,0.5-0.5 V23C22.5,22.7,22.3,22.5,22,22.5z M15,16v4.3c0,0.3,0.3,0.6,0.6,0.6h2.8c0.3,0,0.6-0.3,0.6-0.6V16h2.8c0.5,0,0.7-0.3,0.3-0.7 l-4.5-4.8c-0.5-0.6-0.9-0.5-1.3,0l-4.5,4.8c-0.4,0.4-0.2,0.7,0.3,0.7H15z"></path>
</svg>